<?xml version="1.0" encoding="UTF-8" standalone="no"?>
<svg width="90px" height="97px" viewBox="0 0 90 97" version="1.1" xmlns="http://www.w3.org/2000/svg" xmlns:xlink="http://www.w3.org/1999/xlink" xmlns:sketch="http://www.bohemiancoding.com/sketch/ns">
    <!-- Generator: Sketch 3.3.2 (12043) - http://www.bohemiancoding.com/sketch -->
    <title>computer</title>
    <desc>Created with Sketch.</desc>
    <defs></defs>
    <g id="Page-1" stroke="none" stroke-width="1" fill="none" fill-rule="evenodd" sketch:type="MSPage">
        <g id="computer" sketch:type="MSLayerGroup">
            <g id="Page-1" sketch:type="MSShapeGroup">
                <g id="noun_51585_cc">
                    <g id="Group">
                        <path d="M82.41,0.334525641 L7.589,0.334525641 C3.444,0.334525641 0.072,4.52791026 0.072,9.68383333 L0.072,87.3174103 C0.072,92.4733333 3.444,96.6667179 7.589,96.6667179 L82.41,96.6667179 C86.556,96.6667179 89.928,92.4733333 89.928,87.3174103 L89.928,9.68383333 C89.928,4.52791026 86.556,0.334525641 82.41,0.334525641 L82.41,0.334525641 L82.41,0.334525641 Z M24.59,8.04105128 C25.929,8.04105128 27.015,9.39158974 27.015,11.0567564 C27.015,12.7219231 25.929,14.0724615 24.59,14.0724615 C23.251,14.0724615 22.165,12.7219231 22.165,11.0567564 C22.165,9.39158974 23.251,8.04105128 24.59,8.04105128 L24.59,8.04105128 L24.59,8.04105128 Z M16.642,8.04105128 C17.981,8.04105128 19.067,9.39158974 19.067,11.0567564 C19.067,12.7219231 17.981,14.0724615 16.642,14.0724615 C15.303,14.0724615 14.217,12.7219231 14.217,11.0567564 C14.217,9.39158974 15.303,8.04105128 16.642,8.04105128 L16.642,8.04105128 L16.642,8.04105128 Z M8.694,8.04105128 C10.033,8.04105128 11.119,9.39158974 11.119,11.0567564 C11.119,12.7219231 10.033,14.0724615 8.694,14.0724615 C7.355,14.0724615 6.269,12.7219231 6.269,11.0567564 C6.269,9.39158974 7.354,8.04105128 8.694,8.04105128 L8.694,8.04105128 L8.694,8.04105128 Z M85.078,87.3161667 C85.078,89.1454872 83.881,90.6340641 82.41,90.6340641 L7.589,90.6340641 C6.118,90.6340641 4.922,89.1454872 4.922,87.3161667 L4.922,18.9311667 L85.079,18.9311667 L85.079,87.3161667 L85.078,87.3161667 L85.078,87.3161667 Z" id="Shape" fill="#FFFFFF"></path>
                        <rect id="Rectangle" fill="#FFFFFF" x="12" y="26.1153846" width="18.995" height="57.7983205"></rect>
                        <rect id="Rectangle" fill="#FFFFFF" x="36" y="26.1153846" width="18.995" height="57.7983205"></rect>
                        <rect id="Rectangle" fill="#FFFFFF" x="59" y="26.1153846" width="18.995" height="15.3110769"></rect>
                        <rect id="Rectangle" fill="#F6A623" x="59" y="47.2564103" width="18.995" height="15.3110769"></rect>
                        <rect id="Rectangle" fill="#FFFFFF" x="59" y="68.3974359" width="18.995" height="15.3110769"></rect>
                    </g>
                </g>
            </g>
        </g>
    </g>
</svg>