<?xml version="1.0" encoding="UTF-8" standalone="no"?>
<svg width="98px" height="98px" viewBox="0 0 98 98" version="1.1" xmlns="http://www.w3.org/2000/svg" xmlns:xlink="http://www.w3.org/1999/xlink" xmlns:sketch="http://www.bohemiancoding.com/sketch/ns">
    <!-- Generator: Sketch 3.3.2 (12043) - http://www.bohemiancoding.com/sketch -->
    <title>computer</title>
    <desc>Created with Sketch.</desc>
    <defs></defs>
    <g id="Page-1" stroke="none" stroke-width="1" fill="none" fill-rule="evenodd" sketch:type="MSPage">
        <g id="computer" sketch:type="MSLayerGroup" transform="translate(4.000000, 2.000000)">
            <g id="Page-1" sketch:type="MSShapeGroup">
                <g id="computer">
                    <g id="Page-1">
                        <g id="noun_51585_cc">
                            <g id="Group">
                                <path d="M82.41,0.310384615 L7.589,0.310384615 C3.444,0.310384615 0.072,4.20115385 0.072,8.985 L0.072,81.0161539 C0.072,85.8 3.444,89.6907692 7.589,89.6907692 L82.41,89.6907692 C86.556,89.6907692 89.928,85.8 89.928,81.0161539 L89.928,8.985 C89.928,4.20115385 86.556,0.310384615 82.41,0.310384615 L82.41,0.310384615 L82.41,0.310384615 Z M24.59,7.46076923 C25.929,7.46076923 27.015,8.71384615 27.015,10.2588461 C27.015,11.8038462 25.929,13.056923 24.59,13.056923 C23.251,13.056923 22.165,11.8038462 22.165,10.2588461 C22.165,8.71384615 23.251,7.46076923 24.59,7.46076923 L24.59,7.46076923 L24.59,7.46076923 Z M16.642,7.46076923 C17.981,7.46076923 19.067,8.71384615 19.067,10.2588461 C19.067,11.8038462 17.981,13.056923 16.642,13.056923 C15.303,13.056923 14.217,11.8038462 14.217,10.2588461 C14.217,8.71384615 15.303,7.46076923 16.642,7.46076923 L16.642,7.46076923 L16.642,7.46076923 Z M8.694,7.46076923 C10.033,7.46076923 11.119,8.71384615 11.119,10.2588461 C11.119,11.8038462 10.033,13.056923 8.694,13.056923 C7.355,13.056923 6.269,11.8038462 6.269,10.2588461 C6.269,8.71384615 7.354,7.46076923 8.694,7.46076923 L8.694,7.46076923 L8.694,7.46076923 Z M85.078,81.015 C85.078,82.7123077 83.881,84.0934615 82.41,84.0934615 L7.589,84.0934615 C6.118,84.0934615 4.922,82.7123077 4.922,81.015 L4.922,17.565 L85.079,17.565 L85.079,81.015 L85.078,81.015 L85.078,81.015 Z" id="Shape" fill="#FFFFFF"></path>
                                <rect id="Rectangle" fill="#FFFFFF" x="12" y="24.2307692" width="18.995" height="53.6273077"></rect>
                                <rect id="Rectangle" fill="#FFFFFF" x="36" y="24.2307692" width="18.995" height="53.6273077"></rect>
                                <rect id="Rectangle" fill="#FFFFFF" x="59" y="24.2307692" width="18.995" height="14.2061538"></rect>
                                <rect id="Rectangle" fill="#FF5722" x="59" y="43.8461539" width="18.995" height="14.2061538"></rect>
                                <rect id="Rectangle" fill="#FFFFFF" x="59" y="63.4615385" width="18.995" height="14.2061538"></rect>
                            </g>
                        </g>
                    </g>
                </g>
            </g>
        </g>
    </g>
</svg>