<?xml version="1.0" encoding="UTF-8" standalone="no"?>
<svg width="66px" height="97px" viewBox="0 0 66 97" version="1.1" xmlns="http://www.w3.org/2000/svg" xmlns:xlink="http://www.w3.org/1999/xlink" xmlns:sketch="http://www.bohemiancoding.com/sketch/ns">
    <!-- Generator: Sketch 3.3.2 (12043) - http://www.bohemiancoding.com/sketch -->
    <title>data</title>
    <desc>Created with Sketch.</desc>
    <defs></defs>
    <g id="Page-1" stroke="none" stroke-width="1" fill="none" fill-rule="evenodd" sketch:type="MSPage">
        <g id="data" sketch:type="MSLayerGroup">
            <g id="Page-1" sketch:type="MSShapeGroup">
                <g id="data">
                    <g id="Group">
                        <path d="M64.7037854,64.7599546 C61.1267495,71.4017487 50.4832239,76.4346612 37.4215114,77.3729111 C36.7494343,77.4226267 36.0699818,77.4575334 35.3859198,77.4829202 C35.2642268,77.488209 35.141612,77.4924401 35.019919,77.4966712 C34.3524515,77.5188846 33.6803744,77.5326357 33.0018438,77.5326357 L32.9981562,77.5326357 L32.9944685,77.5326357 C32.3168599,77.5326357 31.6447828,77.5157113 30.9754714,77.4966712 C30.8528565,77.4924401 30.7320855,77.488209 30.6103925,77.4829202 C29.9263305,77.4575334 29.2478,77.421569 28.5757229,77.3729111 C15.5130884,76.4346612 4.86864087,71.4028065 1.29252689,64.7599546 C0.44897332,63.1965573 0,64.0343183 0,64.8096703 L0,75.6392114 C0,82.2281166 5.83573125,88.9682842 14.6925828,93.0682356 L14.6916608,93.0703511 C14.7239279,93.08516 14.7580388,93.0978534 14.7903059,93.1126623 C15.3471435,93.3675869 15.9178097,93.611934 16.4976952,93.8457031 C16.6221539,93.8964765 16.7447688,93.9472498 16.8692275,93.99485 C17.4979746,94.2423702 18.1368627,94.4793127 18.7895796,94.7014462 C18.8200028,94.7109663 18.8522699,94.7204863 18.883615,94.7310641 C19.4994552,94.9352154 20.1300461,95.1277312 20.7661685,95.3075536 C20.9109093,95.348807 21.0556502,95.3900604 21.201313,95.4291982 C21.875234,95.6143096 22.5565302,95.7867275 23.2525772,95.9379899 C23.2839223,95.9464521 23.3152675,95.9527988 23.3456907,95.9591455 C24.0020953,96.1040612 24.6704847,96.2288791 25.3434837,96.3441771 C25.5140383,96.3727371 25.6845928,96.4023548 25.8560693,96.4298572 C26.565023,96.5419817 27.2776645,96.6435284 28.0032127,96.7239197 C28.0317921,96.727093 28.0603716,96.7292085 28.0898729,96.732382 C28.784076,96.8064264 29.4874983,96.8624888 30.1955301,96.9058577 C30.384523,96.9196088 30.5725939,96.9270133 30.7625087,96.937591 C31.4981981,96.9746133 32.2421847,97 32.9935466,97 L32.9972343,97 L32.9981562,97 L32.9990781,97 L33.0027657,97 C33.7541277,97 34.4981143,96.9767289 35.2384132,96.9386488 C35.428328,96.9270133 35.6163989,96.9174932 35.8053918,96.9069155 C36.5134237,96.8635466 37.215924,96.8074842 37.9101271,96.7334397 C37.9396284,96.7302663 37.9672859,96.7281508 37.9967873,96.7249774 C38.7223355,96.6445863 39.4358989,96.5430395 40.1448526,96.430915 C40.317251,96.4034126 40.4868836,96.3737949 40.6574382,96.3452349 C41.3304372,96.2299369 41.9979047,96.1040612 42.6552312,95.9602033 C42.6856544,95.9538565 42.7169996,95.9475099 42.7492667,95.9390477 C43.4434698,95.7867275 44.124766,95.6143096 44.7996089,95.430256 C44.9443498,95.3911181 45.0881687,95.3498647 45.2329096,95.3086115 C45.8717977,95.128789 46.5014667,94.937331 47.1191507,94.7300064 C47.149574,94.7194285 47.1799972,94.7099085 47.2113424,94.702504 C47.8649811,94.4803705 48.5029473,94.2444857 49.1335382,93.9959078 C49.257075,93.9483076 49.378768,93.8975343 49.500461,93.8478187 C50.0812683,93.611934 50.6556223,93.3686448 51.2133818,93.1116045 C51.2447269,93.0967956 51.2779159,93.0862177 51.3083392,93.0714089 L51.3074172,93.0692934 C60.1642688,88.9682842 66,82.2281166 66,75.6402691 L66,64.810728 C65.9963123,64.035376 65.547339,63.1986728 64.7037854,64.7599546 L64.7037854,64.7599546 L64.7037854,64.7599546 Z" id="Shape" fill="#FFFFFF"></path>
                        <path d="M65.9557486,13.6998909 C65.0716431,6.06833606 50.6576804,0 33.000461,0 C33.000461,0 33.000461,0 32.999539,0 C32.9986171,0 32.999539,0 32.9986171,0 C14.7716612,0 0,6.46638286 0,14.4423395 L0,21.351831 C0,29.8127394 14.7707393,36.6707317 32.9986171,36.6707317 L32.999539,36.6707317 L33.000461,36.6707317 C50.6576804,36.6707317 65.0716431,30.2343902 65.9557486,22.1404143 C65.9843276,21.8786261 66,21.6168379 66,21.351831 L66,14.4423395 C65.9981562,14.1934261 65.9843276,13.9466585 65.9557486,13.6998909 L65.9557486,13.6998909 L65.9557486,13.6998909 Z" id="Shape" fill="#FFFFFF"></path>
                        <path d="M64.76371,35.093099 C61.673446,40.4430923 53.0784188,44.6615677 42.1638497,46.2017506 C40.7468641,46.4016888 39.291158,46.5532902 37.8031848,46.6609492 C37.7368068,46.6653434 37.668585,46.6719348 37.5994413,46.6752304 C36.8969409,46.7235672 36.1879871,46.7609182 35.4707361,46.7872838 C35.3803883,46.7905794 35.2900405,46.7927766 35.1978489,46.7971708 C34.4713787,46.8202406 33.7402989,46.8345218 33.0009219,46.8345218 C32.9741863,46.8345218 32.9465288,46.8334234 32.9207152,46.8334234 C32.2311217,46.8334234 31.5479816,46.819142 30.869451,46.799368 C30.7413047,46.7949736 30.6131583,46.7905794 30.4859338,46.7861852 C29.7944964,46.7609182 29.1104344,46.7235672 28.4328258,46.6774276 C28.3387903,46.6719348 28.2465987,46.6631464 28.154407,46.656555 C26.708842,46.551093 25.2927783,46.4038858 23.9145132,46.210539 C12.9621456,44.6802433 4.3330074,40.4551765 1.2372119,35.093099 C0.431456907,33.6968276 0,34.4548348 0,35.0887048 L0,48.3219739 C0,58.1694771 14.6151418,66.1571161 32.7049867,66.2439024 L33.2940914,66.2406068 L33.2940914,66.2439024 C33.3586255,66.2439024 33.4231597,66.2406068 33.4876938,66.2406068 L33.8481632,66.2384096 L33.8527727,66.2318183 C51.6835592,65.9857405 66,58.0662123 66,48.3208753 L66,35.0876062 C65.9990781,34.4548348 65.5676212,33.6968276 64.76371,35.093099 L64.76371,35.093099 L64.76371,35.093099 Z" id="Shape" fill="#F6A623"></path>
                    </g>
                </g>
            </g>
        </g>
    </g>
</svg>