<?xml version="1.0" encoding="UTF-8" standalone="no"?>
<svg width="98px" height="98px" viewBox="0 0 98 98" version="1.1" xmlns="http://www.w3.org/2000/svg" xmlns:xlink="http://www.w3.org/1999/xlink" xmlns:sketch="http://www.bohemiancoding.com/sketch/ns">
    <!-- Generator: Sketch 3.3.2 (12043) - http://www.bohemiancoding.com/sketch -->
    <title>data</title>
    <desc>Created with Sketch.</desc>
    <defs></defs>
    <g id="Page-1" stroke="none" stroke-width="1" fill="none" fill-rule="evenodd" sketch:type="MSPage">
        <g id="data" sketch:type="MSLayerGroup" transform="translate(4.000000, 2.000000)">
            <g id="Page-1" sketch:type="MSShapeGroup">
                <g id="data">
                    <g id="Page-1">
                        <g id="data">
                            <g id="Group">
                                <path d="M88.2324346,60.0865558 C83.3546584,66.2490452 68.8407599,70.9187578 51.0293337,71.789299 C50.112865,71.8354268 49.1863388,71.8678145 48.253527,71.8913693 C48.087582,71.8962764 47.92038,71.9002022 47.754435,71.9041279 C46.844252,71.9247383 45.9277833,71.937497 45.0025143,71.937497 L44.9974857,71.937497 L44.992457,71.937497 C44.0684453,71.937497 43.1519765,71.921794 42.2392792,71.9041279 C42.072077,71.9002022 41.9073893,71.8962764 41.7414443,71.8913693 C40.8086325,71.8678145 39.8833636,71.8344455 38.9668949,71.789299 C21.1542115,70.9187578 6.63905573,66.2500266 1.76253667,60.0865558 C0.612236345,58.635981 0,59.413285 0,60.1326838 L0,70.1807116 C0,76.2941288 7.95781534,82.5478926 20.0353402,86.3519712 L20.0340829,86.353934 C20.0780835,86.3676742 20.1245984,86.3794516 20.168599,86.3931918 C20.927923,86.6297198 21.7061041,86.8564336 22.4968571,87.0733328 C22.6665735,87.1204421 22.8337756,87.1675514 23.003492,87.2117165 C23.8608745,87.4413744 24.7320855,87.661218 25.622154,87.8673212 C25.6636402,87.8761543 25.7076408,87.8849873 25.7503841,87.8948017 C26.5901662,88.0842205 27.4500629,88.2628434 28.3175025,88.4296889 C28.5148763,88.4679653 28.7122503,88.5062416 28.9108814,88.542555 C29.8298645,88.7143079 30.7589048,88.8742832 31.7080598,89.0146298 C31.7508031,89.0224813 31.7935466,89.02837 31.8350328,89.0342587 C32.73013,89.1687166 33.64157,89.284527 34.559296,89.3915045 C34.7918704,89.4180035 35.0244447,89.4454838 35.2582763,89.4710015 C36.2250314,89.5750346 37.1968152,89.6692532 38.1861991,89.743843 C38.225171,89.7467873 38.2641431,89.7487502 38.3043721,89.7516946 C39.2510127,89.8203956 40.210225,89.8724123 41.1757229,89.9126515 C41.4334405,89.9254102 41.6899008,89.9322804 41.9488755,89.9420947 C42.9520883,89.9764453 43.9666155,90 44.9911999,90 L44.9962286,90 L44.9974857,90 L44.9987429,90 L45.0037714,90 C46.028356,90 47.0428831,89.9784083 48.0523816,89.9430762 C48.3113564,89.9322804 48.5678167,89.9234473 48.8255343,89.9136329 C49.7910323,89.8733938 50.7489873,89.8213771 51.6956279,89.752676 C51.7358569,89.7497316 51.7735717,89.7477688 51.8138009,89.7448244 C52.8031848,89.6702347 53.7762258,89.576016 54.7429808,89.471983 C54.9780695,89.4464653 55.2093867,89.418985 55.4419612,89.392486 C56.3596871,89.2855085 57.26987,89.1687166 58.1662244,89.0352402 C58.2077105,89.0293514 58.250454,89.0234628 58.2944546,89.0156113 C59.2410952,88.8742832 60.1701355,88.7143079 61.0903758,88.5435365 C61.2877497,88.507223 61.4838664,88.4689466 61.6812404,88.4306705 C62.5524514,88.2638248 63.411091,88.0861834 64.2533873,87.8938204 C64.2948736,87.8840058 64.3363598,87.8751728 64.3791033,87.8683027 C65.2704288,87.6621994 66.1403827,87.4433372 67.0002794,87.212698 C67.1687386,87.1685328 67.3346836,87.1214236 67.5006286,87.0752957 C68.2926386,86.8564336 69.0758486,86.6307014 69.8364297,86.3922104 C69.879173,86.3784701 69.9244308,86.3686556 69.9659171,86.3549155 L69.9646598,86.3529526 C82.0421847,82.5478926 90,76.2941288 90,70.181693 L90,60.1336652 C89.9949713,59.4142664 89.382735,58.6379438 88.2324346,60.0865558 L88.2324346,60.0865558 L88.2324346,60.0865558 Z" id="Shape" fill="#FFFFFF"></path>
                                <path d="M89.9396572,12.711239 C88.7340588,5.6304149 69.0786551,0 45.0006286,0 C45.0006286,0 45.0006286,0 44.9993714,0 C44.9981142,0 44.9993714,0 44.9981142,0 C20.1431744,0 0,5.99973667 0,13.4001088 L0,19.8109772 C0,27.6613046 20.1419172,34.0243902 44.9981142,34.0243902 L44.9993714,34.0243902 L45.0006286,34.0243902 C69.0786551,34.0243902 88.7340588,28.052527 89.9396572,20.5426524 C89.9786285,20.2997562 90,20.0568599 90,19.8109772 L90,13.4001088 C89.9974857,13.1691582 89.9786285,12.9401986 89.9396572,12.711239 L89.9396572,12.711239 L89.9396572,12.711239 Z" id="Shape" fill="#FFFFFF"></path>
                                <path d="M88.31415,32.5606073 C84.1001536,37.5245186 72.379662,41.438568 57.4961587,42.8676036 C55.5639056,43.0531133 53.5788518,43.1937744 51.5497975,43.2936642 C51.459282,43.2977413 51.3662523,43.303857 51.2719654,43.3069148 C50.3140103,43.3517634 49.3472551,43.3864189 48.3691856,43.4108819 C48.245984,43.4139396 48.1227825,43.4159783 47.9970667,43.4200554 C47.0064255,43.4414604 46.0094985,43.4547109 45.0012571,43.4547109 C44.9647995,43.4547109 44.9270847,43.4536918 44.8918844,43.4536918 C43.9515296,43.4536918 43.0199749,43.440441 42.0947059,43.422094 C41.919961,43.4180167 41.7452159,43.4139396 41.5717279,43.4098626 C40.6288587,43.3864189 39.6960469,43.3517634 38.7720352,43.3089534 C38.643805,43.303857 38.5180891,43.2957028 38.3923732,43.2895871 C36.4211482,43.1917358 34.4901522,43.0551518 32.6106998,42.8757578 C17.6756531,41.4558958 5.90864645,37.5357308 1.68710714,32.5606073 C0.588350328,31.2650978 0,31.9684034 0,32.5565302 L0,44.8348211 C0,53.9716798 19.9297388,61.3828912 44.5977091,61.4634146 L45.4010337,61.4603568 L45.4010337,61.4634146 C45.4890348,61.4634146 45.577036,61.4603568 45.665037,61.4603568 L46.1565862,61.4583182 L46.1628719,61.4522025 C70.4775807,61.2238829 90,53.8758671 90,44.8338018 L90,32.5555109 C89.9987429,31.9684034 89.4103925,31.2650978 88.31415,32.5606073 L88.31415,32.5606073 L88.31415,32.5606073 Z" id="Shape" fill="#FF5722"></path>
                            </g>
                        </g>
                    </g>
                </g>
            </g>
        </g>
    </g>
</svg>