<?xml version="1.0" encoding="UTF-8" standalone="no"?>
<svg width="535px" height="132px" viewBox="0 0 535 132" version="1.1" xmlns="http://www.w3.org/2000/svg" xmlns:xlink="http://www.w3.org/1999/xlink" xmlns:sketch="http://www.bohemiancoding.com/sketch/ns">
    <!-- Generator: Sketch 3.3.2 (12043) - http://www.bohemiancoding.com/sketch -->
    <title>drakunlogo</title>
    <desc>Created with Sketch.</desc>
    <defs>
        <filter x="-50%" y="-50%" width="200%" height="200%" filterUnits="objectBoundingBox" id="filter-1">
            <feOffset dx="0" dy="2" in="SourceAlpha" result="shadowOffsetOuter1"></feOffset>
            <feGaussianBlur stdDeviation="2" in="shadowOffsetOuter1" result="shadowBlurOuter1"></feGaussianBlur>
            <feColorMatrix values="0 0 0 0 0   0 0 0 0 0   0 0 0 0 0  0 0 0 0.35 0" in="shadowBlurOuter1" type="matrix" result="shadowMatrixOuter1"></feColorMatrix>
            <feMerge>
                <feMergeNode in="shadowMatrixOuter1"></feMergeNode>
                <feMergeNode in="SourceGraphic"></feMergeNode>
            </feMerge>
        </filter>
        <filter x="-50%" y="-50%" width="200%" height="200%" filterUnits="objectBoundingBox" id="filter-2">
            <feOffset dx="0" dy="2" in="SourceAlpha" result="shadowOffsetOuter1"></feOffset>
            <feGaussianBlur stdDeviation="2" in="shadowOffsetOuter1" result="shadowBlurOuter1"></feGaussianBlur>
            <feColorMatrix values="0 0 0 0 0   0 0 0 0 0   0 0 0 0 0  0 0 0 0.35 0" in="shadowBlurOuter1" type="matrix" result="shadowMatrixOuter1"></feColorMatrix>
            <feMerge>
                <feMergeNode in="shadowMatrixOuter1"></feMergeNode>
                <feMergeNode in="SourceGraphic"></feMergeNode>
            </feMerge>
        </filter>
        <filter x="-50%" y="-50%" width="200%" height="200%" filterUnits="objectBoundingBox" id="filter-3">
            <feOffset dx="0" dy="2" in="SourceAlpha" result="shadowOffsetOuter1"></feOffset>
            <feGaussianBlur stdDeviation="2" in="shadowOffsetOuter1" result="shadowBlurOuter1"></feGaussianBlur>
            <feColorMatrix values="0 0 0 0 0   0 0 0 0 0   0 0 0 0 0  0 0 0 0.35 0" in="shadowBlurOuter1" type="matrix" result="shadowMatrixOuter1"></feColorMatrix>
            <feMerge>
                <feMergeNode in="shadowMatrixOuter1"></feMergeNode>
                <feMergeNode in="SourceGraphic"></feMergeNode>
            </feMerge>
        </filter>
        <filter x="-50%" y="-50%" width="200%" height="200%" filterUnits="objectBoundingBox" id="filter-4">
            <feOffset dx="0" dy="2" in="SourceAlpha" result="shadowOffsetOuter1"></feOffset>
            <feGaussianBlur stdDeviation="2" in="shadowOffsetOuter1" result="shadowBlurOuter1"></feGaussianBlur>
            <feColorMatrix values="0 0 0 0 0   0 0 0 0 0   0 0 0 0 0  0 0 0 0.35 0" in="shadowBlurOuter1" type="matrix" result="shadowMatrixOuter1"></feColorMatrix>
            <feMerge>
                <feMergeNode in="shadowMatrixOuter1"></feMergeNode>
                <feMergeNode in="SourceGraphic"></feMergeNode>
            </feMerge>
        </filter>
    </defs>
    <g id="Page-1" stroke="none" stroke-width="1" fill="none" fill-rule="evenodd" sketch:type="MSPage">
        <g id="drakunlogo" sketch:type="MSLayerGroup" transform="translate(3.000000, -15.000000)">
            <g id="Page-1">
                <g id="drakunlogo">
                    <g id="Shape" transform="translate(14.254237, 16.000000)" stroke="#979797" fill="#727272" sketch:type="MSShapeGroup">
                        <g id="path-1-link" transform="translate(1.000000, 0.000000)">
                            <path d="M21.920339,0.0339240506 C15.9932203,0.279873418 14.2491525,5.98081013 17.5067797,9.67513924 C19.4847458,11.917519 18.6220339,15.1877975 14.7559322,15.1877975 L3.33389831,15.1877975 C1.75423729,15.1877975 0.461016949,16.3174684 0.461016949,17.8983291 L0.461016949,29.6530127 C0.461016949,30.3416709 0.76779661,31.5035696 1.43050847,31.8105823 C1.60169492,31.8903038 1.78644068,31.9276203 1.9779661,31.9276203 C2.52033898,31.9276203 3.11864407,31.6290886 3.63389831,31.1592405 C5.05254237,29.865038 6.79152542,29.1882532 8.51355932,29.1882532 C9.39830508,29.1882532 10.279661,29.3663544 11.1135593,29.7327342 C13.5745763,30.8183038 15.2813559,33.3676962 15.2813559,36.5531646 L15.2813559,36.607443 L15.2813559,36.6447595 C15.2813559,39.8200506 13.5508475,42.3456962 11.079661,43.4346582 C10.2491525,43.801038 9.37288136,43.977443 8.49152542,43.977443 C6.74576271,43.977443 4.98474576,43.2803038 3.55254237,41.9725316 C3.0440678,41.5077722 2.46949153,41.2211139 1.95084746,41.2211139 C1.76610169,41.2211139 1.58813559,41.2567342 1.42372881,41.3347595 C0.772881356,41.6400759 0.461016949,42.7476962 0.461016949,43.4363544 L0.461016949,55.2707595 C0.461016949,56.8499241 1.75423729,58.1899241 3.33389831,58.1899241 L14.7559322,58.1899241 C18.6220339,58.1899241 21.1355932,61.5823291 19.159322,63.8247089 C18.1423729,65.6074177 16.0932203,71.4677975 22.020339,71.7171392 C27.9440678,71.4694937 27.1728814,66.0518228 25.3932203,63.8874684 C23.4152542,61.6433924 25.2169492,58.1899241 29.0830508,58.1899241 L40.6779661,58.1899241 C42.2576271,58.1899241 43.4322034,56.8499241 43.4322034,55.2707595 L43.4322034,43.5143797 C43.4322034,42.8257215 43.2745763,41.6638228 42.6152542,41.3568101 C42.4440678,41.2770886 42.2644068,41.2397722 42.079661,41.2397722 C41.559322,41.2397722 41.0016949,41.5366076 40.4864407,42.0064557 C39.0694915,43.3006582 37.440678,43.9791392 35.7932203,43.9791392 C34.9457627,43.9791392 34.0949153,43.801038 33.2644068,43.4346582 C30.8016949,42.3490886 29.3525424,39.7996962 29.3525424,36.6142278 L29.3525424,36.5582532 L29.3525424,36.5209367 C29.3525424,33.3456456 30.8610169,30.8216962 33.3322034,29.7327342 C34.1610169,29.3663544 35.0271186,29.1899494 35.8915254,29.1899494 C37.6050847,29.1899494 39.3169492,29.8870886 40.7491525,31.1931646 C41.259322,31.6562278 41.7220339,31.9428861 42.1830508,31.9428861 C42.3474576,31.9428861 42.5101695,31.9072658 42.6762712,31.8309367 C43.3271186,31.5290127 43.4305085,30.4196962 43.4305085,29.7293418 L43.4305085,17.8966329 C43.4305085,16.3140759 42.2559322,15.1861013 40.6762712,15.1861013 L29.0813559,15.1861013 C25.2152542,15.1861013 24.3525424,11.926 26.3322034,9.68192405 C29.5915254,5.99268354 27.8440678,0.28156962 21.920339,0.0339240506 Z" id="path-1"></path>
                        </g>
                    </g>
                    <path d="M123.99661,79.926481 C124.783051,79.926481 125.611864,80.1809114 126.462712,80.6846835 C127.913559,81.7668608 128.574576,83.1102532 128.322034,84.4756962 C128.072881,85.8190886 126.966102,86.9080506 125.435593,87.3168354 C123.157627,87.9274684 121.533898,89.5948354 121.194915,91.6658987 C120.849153,93.7895443 121.889831,95.8317722 124.050847,97.2684557 L133.70339,103.691975 C134.218644,104.038 133.979661,104.395899 133.901695,104.512937 L127.827119,113.658861 C126.683051,110.578557 124.186441,108.393848 121.091525,107.851063 C120.613559,107.767949 120.127119,107.725544 119.644068,107.725544 C116.637288,107.725544 113.832203,109.331848 111.901695,112.188253 L111.864407,112.237443 L111.823729,112.300203 C109.577966,115.685823 109.377966,119.492101 111.288136,122.485899 C112.874576,124.962354 115.533898,126.382076 118.583051,126.382076 C118.850847,126.382076 119.122034,126.371899 119.394915,126.349848 L113.223729,135.641646 C113.032203,135.931696 112.764407,136.035165 112.574576,136.035165 C112.472881,136.035165 112.379661,136.004633 112.283051,135.940177 L102.627119,129.523443 C101.40678,128.710962 100.171186,128.295392 98.9508475,128.295392 C97.5186441,128.295392 96.2237288,128.878886 95.2983051,129.939013 C94.2610169,131.128051 93.8016949,132.817468 94.040678,134.578127 C94.2084746,135.790911 93.9050847,136.942633 93.2135593,137.736456 C92.7983051,138.211392 92.0559322,138.77962 90.879661,138.77962 C90.0847458,138.77962 89.2457627,138.520101 88.3813559,138.009544 C86.9423729,136.935848 86.2627119,135.565316 86.5101695,134.232101 C86.7559322,132.914152 87.8525424,131.842152 89.3745763,131.435063 C91.6338983,130.832911 93.2423729,129.197772 93.5762712,127.165722 C93.9220339,125.06243 92.8711864,123.025291 90.6949153,121.57843 L81.1813559,115.24481 C80.9830508,115.114203 80.9152542,114.907266 80.8915254,114.795316 C80.8491525,114.583291 80.8898305,114.364481 81.0016949,114.194861 L87.2542373,104.780937 C88.3118644,108.15638 90.9440678,110.566684 94.2423729,111.136608 C94.7508475,111.228203 95.2694915,111.272304 95.7864407,111.272304 C98.8322034,111.272304 101.722034,109.689747 103.581356,106.986 L103.622034,106.93681 L103.701695,106.819772 C105.871186,103.546101 105.99661,99.5888608 104.020339,96.4882025 C102.4,93.962557 99.5576271,92.4563291 96.4152542,92.4563291 C96.0830508,92.4563291 95.7457627,92.4732911 95.4101695,92.505519 L101.681356,83.0695443 C101.747458,82.9677722 101.864407,82.8337722 102.111864,82.8337722 C102.271186,82.8337722 102.445763,82.8931392 102.60678,83 L112.115254,89.3285316 C113.318644,90.1308354 114.547458,90.5362278 115.762712,90.5362278 C117.216949,90.5362278 118.538983,89.9408608 119.481356,88.8586835 C120.533898,87.6509873 121,85.9496962 120.759322,84.1924304 C120.591525,82.974557 120.90339,81.810962 121.610169,81.0001772 C122.213559,80.3081266 123.061017,79.926481 123.99661,79.926481 L123.99661,79.926481 L123.99661,79.926481 Z M123.99661,77.7875696 C120.6,77.7875696 118.140678,80.8271646 118.642373,84.482481 C118.935593,86.6281772 117.691525,88.3990127 115.762712,88.3990127 C115.023729,88.3990127 114.188136,88.1428861 113.298305,87.5492152 L103.789831,81.2206835 C103.266102,80.8712658 102.681356,80.696557 102.111864,80.696557 C101.250847,80.696557 100.427119,81.0934684 99.9,81.8872911 L93.3966102,91.6743797 C93.0118644,92.2510886 92.6271186,93.3909367 93.0101695,94.0066582 C93.3084746,94.5036456 93.9305085,94.7326329 94.6440678,94.7326329 C94.8237288,94.7326329 95.0118644,94.7173671 95.2,94.6902278 C95.6084746,94.6274684 96.0135593,94.5969367 96.4135593,94.5969367 C98.8186441,94.5969367 100.979661,95.7113418 102.220339,97.6450127 C103.667797,99.9179241 103.677966,102.984658 101.918644,105.639215 L101.883051,105.678228 L101.861017,105.712152 C100.362712,107.969797 98.0762712,109.138481 95.7830508,109.138481 C95.3915254,109.138481 95,109.102861 94.6118644,109.035013 C91.9457627,108.575342 89.8542373,106.483924 89.1525424,103.651266 C88.9271186,102.74719 88.4152542,102.044962 87.7288136,101.938101 C87.6830508,101.931316 87.6355932,101.927924 87.5898305,101.927924 C86.9101695,101.927924 86.1237288,102.616582 85.7661017,103.157671 L79.2186441,113.014304 C78.3440678,114.332253 78.6813559,116.160759 79.9983051,117.032608 L89.5067797,123.362835 C92.7254237,125.503443 91.7084746,128.600709 88.820339,129.372481 C84.0644068,130.641241 82.3949153,136.306557 87.1932203,139.795646 C88.479661,140.575899 89.7322034,140.921924 90.8762712,140.921924 C94.2423729,140.921924 96.6542373,137.931519 96.1542373,134.289772 C95.8644068,132.157646 97.0576271,130.437696 98.9474576,130.437696 C99.6881356,130.437696 100.532203,130.700608 101.437288,131.306152 L111.098305,137.726278 C111.557627,138.033291 112.066102,138.177468 112.571186,138.177468 C113.511864,138.177468 114.435593,137.682177 115.00339,136.825595 L121.50678,127.033418 C121.889831,126.460101 122.4,125.406759 122.018644,124.787646 C121.728814,124.305924 121.159322,124.098987 120.479661,124.098987 C120.291525,124.098987 120.091525,124.115949 119.889831,124.144785 C119.442373,124.214329 119.005085,124.248253 118.579661,124.248253 C116.267797,124.248253 114.305085,123.240709 113.084746,121.335873 C111.637288,119.069747 111.840678,116.143797 113.60339,113.487544 L113.637288,113.445139 L113.659322,113.411215 C115.177966,111.12643 117.362712,109.867848 119.647458,109.867848 C120.005085,109.867848 120.366102,109.900076 120.728814,109.962835 C123.39322,110.429291 125.389831,112.457949 126.09661,115.287215 C126.325424,116.191291 126.661017,116.784962 127.349153,116.886734 C127.389831,116.893519 127.433898,116.896911 127.474576,116.896911 C128.135593,116.896911 128.781356,116.092911 129.137288,115.555215 L135.681356,105.701975 C136.557627,104.384025 136.20339,102.79638 134.889831,101.919443 L125.233898,95.4925316 C122.015254,93.3519241 123.1,90.1613671 125.988136,89.3862025 C130.744068,88.117443 132.449153,82.3961519 127.647458,78.9070633 C126.376271,78.1285063 125.133898,77.7875696 123.99661,77.7875696 L123.99661,77.7875696 L123.99661,77.7875696 Z" id="Shape" fill="#727272" filter="url(#filter-1)" sketch:type="MSShapeGroup"></path>
                    <path d="M100.811864,31.0962025 L89.0644068,31.0962025 C88.3762712,31.0962025 87.2152542,31.2522532 86.9101695,31.9137722 C86.6050847,32.5702025 86.9220339,33.3436709 87.559322,34.0442025 C89.5186441,36.1898987 90.0610169,38.8190127 88.9847458,41.2700253 C87.9,43.7312152 85.3508475,45.1814684 82.1694915,45.1814684 L82.1118644,45.1814684 L82.0762712,45.1814684 C78.9016949,45.1814684 76.379661,43.6752405 75.2864407,41.1987848 C74.2016949,38.7223291 74.7864407,35.9337722 76.7508475,33.7762025 C77.379661,33.0824557 77.6813559,32.4786076 77.3898305,31.8493165 C77.0847458,31.1996709 75.9779661,31.0962025 75.2864407,31.0962025 L63.4627119,31.0962025 C61.8830508,31.0962025 60.7559322,32.2682785 60.7559322,33.8525316 L60.7559322,45.454557 C60.7559322,48.3279241 58.9338983,50.2751646 57.0779661,50.2751646 C56.4355932,50.2751646 55.7881356,50.0410886 55.2118644,49.5322278 C54.4457627,48.8757975 52.9627119,48.2753418 51.5,48.2736456 C49.559322,48.2736456 47.6576271,49.3303797 47.5169492,52.7126076 C47.6559322,56.040557 49.5644068,56.9768608 51.5033898,56.9768608 C53.0186441,56.9768608 54.5508475,56.4069367 55.2745763,55.9591392 C55.8813559,55.4231392 56.5627119,55.1737975 57.2338983,55.1737975 C59.0355932,55.1737975 60.7576271,56.9717722 60.7576271,59.792557 L60.7576271,71.224962 C60.7576271,72.8058228 61.8847458,74.1000253 63.4644068,74.1000253 L75.2118644,74.1000253 C75.9033898,74.1000253 77.0610169,73.7896203 77.3694915,73.1281013 C77.6745763,72.4733671 77.3542373,71.6235696 76.7186441,70.9247342 C74.7610169,68.7756456 74.2135593,65.8904051 75.2932203,63.4393924 C76.379661,60.9782025 78.9254237,59.2701266 82.1084746,59.2701266 L82.1610169,59.2701266 L82.2,59.2701266 C85.3711864,59.2701266 87.8932203,61.0002532 88.9813559,63.4733165 C90.0745763,65.9497722 89.4864407,68.8485823 87.5254237,71.0044557 C86.8932203,71.6965063 86.5915254,72.5055949 86.8864407,73.1382785 C87.1915254,73.7862278 88.2966102,74.1000253 88.9847458,74.1000253 L100.810169,74.1000253 C102.389831,74.1000253 103.725424,72.8058228 103.725424,71.224962 L103.725424,59.792557 C103.725424,57.2567342 105.072881,56.0134177 106.632203,56.0134177 C107.454237,56.0134177 108.333898,56.3577468 109.108475,57.0396203 C110.344068,58.1302785 111.79661,58.6611899 113.19322,58.6611899 C115.969492,58.6611899 118.518644,56.5697722 118.683051,52.6244051 C118.516949,48.679038 115.981356,46.5842278 113.215254,46.5842278 C111.822034,46.5842278 110.371186,47.113443 109.135593,48.2057975 C108.362712,48.8876709 107.479661,49.232 106.654237,49.232 C105.084746,49.232 103.723729,47.9886835 103.723729,45.4511646 L103.723729,33.8491392 C103.725424,32.2682785 102.389831,31.0962025 100.811864,31.0962025 Z" id="Shape" fill="#0097A7" filter="url(#filter-2)" sketch:type="MSShapeGroup"></path>
                    <path d="M56.1169492,76.2067089 L44.3711864,76.2067089 C43.6813559,76.2067089 42.5220339,76.5154177 42.2152542,77.1769367 C41.9101695,77.8316709 42.2271186,78.6831646 42.8644068,79.3803038 C44.820339,81.5310886 45.3661017,84.4180253 44.2864407,86.8673418 C43.2033898,89.3285316 40.6559322,91.0349114 37.4745763,91.0349114 L37.4186441,91.0349114 L37.3830508,91.0349114 C34.2101695,91.0349114 31.6864407,89.3081772 30.5983051,86.8334177 C29.5067797,84.3552658 30.0949153,81.4581519 32.059322,79.3005823 C32.6881356,78.6102278 32.9898305,77.799443 32.6983051,77.1667595 C32.3932203,76.5205063 31.2847458,76.2067089 30.5966102,76.2067089 L18.7711864,76.2067089 C17.1915254,76.2067089 15.8559322,77.4992152 15.8559322,79.0800759 L15.8559322,90.5141772 C15.8559322,93.0466076 14.5084746,94.2933165 12.9474576,94.2933165 C12.1271186,94.2933165 11.2474576,93.9472911 10.4745763,93.2654177 C9.23898305,92.1730633 7.78474576,91.6438481 6.38644068,91.6438481 C3.61186441,91.6438481 1.06271186,93.7352658 0.898305085,97.6789367 C1.06271186,101.626 3.60169492,103.72081 6.36779661,103.72081 C7.75932203,103.72081 9.20847458,103.191595 10.4440678,102.100937 C11.2186441,101.419063 12.1016949,101.074734 12.9271186,101.074734 C14.4966102,101.074734 15.8559322,102.318051 15.8559322,104.85557 L15.8559322,116.457595 C15.8559322,118.041848 17.1915254,119.217316 18.7711864,119.217316 L30.5186441,119.217316 C31.2067797,119.217316 32.3694915,119.054481 32.6762712,118.399747 C32.979661,117.736532 32.6610169,116.968152 32.0237288,116.262532 C30.0677966,114.118532 29.5254237,111.49281 30.5983051,109.043494 C31.6830508,106.578911 34.2338983,105.126962 37.4135593,105.126962 L37.4694915,105.126962 L37.5050847,105.126962 C40.6813559,105.126962 43.2016949,106.631494 44.2932203,109.109646 C45.3813559,111.587797 44.7932203,114.376354 42.8322034,116.530532 C42.2,117.222582 41.9,117.82643 42.1949153,118.459114 C42.4949153,119.108759 43.6050847,119.217316 44.2932203,119.217316 L56.1169492,119.217316 C57.6983051,119.217316 58.8254237,118.041848 58.8254237,116.457595 L58.8254237,104.85557 C58.8254237,102.319747 60.2254237,101.074734 61.820339,101.074734 C62.659322,101.074734 63.5525424,101.419063 64.3271186,102.100937 C65.5627119,103.191595 67.0237288,103.72081 68.4305085,103.72081 C71.2237288,103.72081 73.8050847,101.629392 73.9711864,97.6789367 C73.8050847,93.736962 71.2322034,91.6438481 68.4372881,91.6438481 C67.0322034,91.6438481 65.5728814,92.1730633 64.3355932,93.2654177 C63.5627119,93.9472911 62.6677966,94.2933165 61.8271186,94.2933165 C60.2305085,94.2933165 58.8271186,93.0483038 58.8271186,90.5141772 L58.8271186,79.0800759 C58.8254237,77.497519 57.6983051,76.2067089 56.1169492,76.2067089 Z" id="Shape" fill="#FF5722" filter="url(#filter-3)" sketch:type="MSShapeGroup"></path>
                    <path d="M96.3677966,87.0929367 L109.266102,84.758962 L107.432203,83.5376962 L97.5423729,85.3288861 L96.3677966,87.0929367 L96.3677966,87.0929367 Z" id="Shape" fill="#000000" sketch:type="MSShapeGroup"></path>
                    <path d="M128.677966,79.6924051 L118.9,81.4632405 C118.733898,81.9670127 118.633898,82.5047089 118.601695,83.0695443 L129.737288,81.0527595 C129.466102,80.5829114 129.108475,80.1283291 128.677966,79.6924051 L128.677966,79.6924051 L128.677966,79.6924051 Z" id="Shape" fill="#000000" sketch:type="MSShapeGroup"></path>
                    <path d="M129.994915,86.0395949 C130.238983,85.520557 130.394915,84.9709873 130.461017,84.4027595 L118.342373,86.5959494 C117.594915,88.2243038 115.674576,88.9672405 113.383051,87.4932405 L93.7389831,91.048481 L93.3949153,91.567519 C93.1983051,91.8626582 93.0050847,92.3070633 92.9118644,92.7514684 L129.994915,86.0395949 L129.994915,86.0395949 Z" id="Shape" fill="#000000" sketch:type="MSShapeGroup"></path>
                    <path d="M123.271186,92.2901013 C123.281356,91.6896456 123.49322,91.1197215 123.867797,90.629519 L99.3,95.0752658 C99.9881356,95.3737975 100.608475,95.7893671 101.155932,96.2931392 L123.271186,92.2901013 L123.271186,92.2901013 Z" id="Shape" fill="#000000" sketch:type="MSShapeGroup"></path>
                    <path d="M89.140678,103.503696 C88.9813559,102.898152 88.6881356,102.397772 88.3050847,102.102633 L86.2949153,102.467316 C86.0847458,102.657291 85.8932203,102.859139 85.7661017,103.05081 L84.9610169,104.261899 L89.140678,103.503696 L89.140678,103.503696 Z" id="Shape" fill="#000000" sketch:type="MSShapeGroup"></path>
                    <path d="M103.042373,99.4328101 C103.171186,99.9230127 103.232203,100.431873 103.250847,100.949215 L127.111864,96.6306835 L125.276271,95.4077215 L103.042373,99.4328101 L103.042373,99.4328101 Z" id="Shape" fill="#000000" sketch:type="MSShapeGroup"></path>
                    <path d="M133.054237,100.586228 L131.220339,99.364962 L102.466102,104.568911 C102.30678,104.892886 102.127119,105.215165 101.918644,105.528962 L101.883051,105.567975 L101.861017,105.601899 C101.686441,105.863114 101.494915,106.100582 101.301695,106.332962 L133.054237,100.586228 L133.054237,100.586228 Z" id="Shape" fill="#000000" sketch:type="MSShapeGroup"></path>
                    <path d="M92.2322034,107.976582 C91.6864407,107.623772 91.1966102,107.192937 90.7661017,106.689165 L82.3355932,108.214051 L81.1627119,109.979797 L92.2322034,107.976582 L92.2322034,107.976582 Z" id="Shape" fill="#000000" sketch:type="MSShapeGroup"></path>
                    <path d="M136.1,103.517266 L78.8101695,113.887848 C78.6983051,114.403494 78.7288136,114.932709 78.8881356,115.426304 L135.945763,105.09643 C136.167797,104.574 136.213559,104.027823 136.1,103.517266 L136.1,103.517266 L136.1,103.517266 Z" id="Shape" fill="#000000" sketch:type="MSShapeGroup"></path>
                    <path d="M123.223729,110.880481 C123.747458,111.23838 124.215254,111.676 124.622034,112.181468 L132.216949,110.804152 L133.388136,109.040101 L123.223729,110.880481 L123.223729,110.880481 Z" id="Shape" fill="#000000" sketch:type="MSShapeGroup"></path>
                    <path d="M113.081356,114.269494 C113.238983,113.969266 113.40678,113.670734 113.60339,113.377291 L113.637288,113.334886 L113.659322,113.300962 C113.847458,113.016 114.050847,112.756481 114.261017,112.502051 L82.1016949,118.325114 L83.9355932,119.54638 L113.081356,114.269494 L113.081356,114.269494 Z" id="Shape" fill="#000000" sketch:type="MSShapeGroup"></path>
                    <path d="M112.144068,117.921418 L88.0474576,122.282354 L89.5067797,123.254278 C89.6305085,123.337392 89.7389831,123.423899 89.8491525,123.508709 L112.315254,119.441215 C112.191525,118.949316 112.145763,118.438759 112.144068,117.921418 L112.144068,117.921418 L112.144068,117.921418 Z" id="Shape" fill="#000000" sketch:type="MSShapeGroup"></path>
                    <path d="M126.161017,115.383899 C126.374576,116.116658 126.689831,116.606861 127.250847,116.739165 L128.011864,116.601772 C128.467797,116.340557 128.879661,115.833392 129.137288,115.443266 L129.589831,114.763089 L126.161017,115.383899 L126.161017,115.383899 Z" id="Shape" fill="#FF5722" sketch:type="MSShapeGroup"></path>
                    <path d="M116.29661,123.752962 C115.537288,123.491747 114.845763,123.099924 114.245763,122.572405 L91.4627119,126.695873 C91.3576271,127.357392 90.9983051,127.959544 90.4389831,128.434481 L116.29661,123.752962 L116.29661,123.752962 Z" id="Shape" fill="#000000" sketch:type="MSShapeGroup"></path>
                    <path d="M99.1610169,130.33762 C99.8474576,130.383418 100.618644,130.648025 101.438983,131.195899 L101.772881,131.418101 L120.808475,127.97481 L121.50678,126.923165 C121.632203,126.734886 121.762712,126.487241 121.881356,126.227722 L99.1610169,130.33762 L99.1610169,130.33762 Z" id="Shape" fill="#000000" sketch:type="MSShapeGroup"></path>
                    <path d="M97.7661017,130.592051 L84.6152542,132.971823 C84.4355932,133.485772 84.3423729,134.025165 84.3305085,134.574734 L96.2813559,132.413772 C96.5288136,131.584329 97.0491525,130.931291 97.7661017,130.592051 L97.7661017,130.592051 L97.7661017,130.592051 Z" id="Shape" fill="#000000" sketch:type="MSShapeGroup"></path>
                    <path d="M96.1711864,135.913038 L85.3881356,137.863671 C85.7118644,138.326734 86.1135593,138.774532 86.6016949,139.198582 L95.7474576,137.541392 C95.9576271,137.03762 96.1016949,136.491443 96.1711864,135.913038 L96.1711864,135.913038 L96.1711864,135.913038 Z" id="Shape" fill="#000000" sketch:type="MSShapeGroup"></path>
                    <path d="M105.889831,134.154076 L107.727119,135.375342 L117.010169,133.694405 L118.183051,131.928658 L105.889831,134.154076 L105.889831,134.154076 Z" id="Shape" fill="#000000" sketch:type="MSShapeGroup"></path>
                    <g id="Bindtek" transform="translate(132.288136, 0.392405)" font-weight="normal" filter="url(#filter-4)" font-family="Helvetica" fill="#FF5722" sketch:type="MSTextLayer" font-size="119">
                        <text>
                            <tspan x="0" y="117" fill="#000000">Bindtek</tspan>
                        </text>
                    </g>
                </g>
            </g>
        </g>
    </g>
</svg>